<svg xmlns="http://www.w3.org/2000/svg" width="69.63" height="69.63" viewBox="143 2976.87 69.63 69.63"><path d="m189.014 3007.963-14.892-8.019a4.228 4.228 0 0 0-6.232 3.722v16.038a4.22 4.22 0 0 0 6.232 3.722l14.892-8.018a4.228 4.228 0 0 0 0-7.444Zm-1.336 4.962-14.892 8.019a1.41 1.41 0 0 1-2.078-1.242v-16.036a1.39 1.39 0 0 1 .687-1.21 1.45 1.45 0 0 1 .728-.204c.232.001.46.06.662.173l14.893 8.02a1.41 1.41 0 0 1 0 2.481Zm-9.862-36.055c-19.228 0-34.816 15.587-34.816 34.815 0 19.228 15.588 34.815 34.816 34.815s34.815-15.587 34.815-34.815c-.022-19.219-15.596-34.794-34.815-34.815Zm0 66.812c-17.672 0-31.997-14.326-31.997-31.997s14.325-31.997 31.997-31.997c17.671 0 31.996 14.326 31.996 31.997-.02 17.663-14.333 31.977-31.996 31.997Z" fill="#fff" fill-rule="evenodd" data-name="Path 37664"/></svg>